# xmcd CD database file
#
# Track frame offsets:
#	182
#	23460
#	45665
#	65040
#	86880
#	104692
#	126777
#	150062
#	171540
#	193535
#
# Disc length: 2880 seconds
#
# Revision: 0
# Processed by: cddbd v1.5.2PL0 Copyright (c) Steve Scherf et al.
# Submitted via: CDex 1.51
#
DISCID=800b3e0a
DTITLE=Various Artist - Aqui Esta la Salsa
DYEAR=1900
DGENRE=Salsa
TTITLE0=Lalo Rodriguez-Ven Devorame Otra Vez
TTITLE1=Eddie Santiago-Lluvia
TTITLE2=Carlos Oliva+Los Sobrinos del Juez-RompiendoRutina
TTITLE3=Tommy Olivencia-Lobo Domesticado
TTITLE4=Willie Chirino-Los Diseñadores
TTITLE5=Willie Rosario-Llorare
TTITLE6=Roberto Blades-Sin Fe
TTITLE7=Lefty Perez-Mentiras
TTITLE8=Lalo Rodriguez-Si Te Menti
TTITLE9=Eddie Santiago-Tu Me Quemas
EXTD=
EXTT0=
EXTT1=
EXTT2=
EXTT3=
EXTT4=
EXTT5=
EXTT6=
EXTT7=
EXTT8=
EXTT9=
PLAYORDER=
